USFL
nRows=154
nColumns=2
inDegrees=yes
endheader
time	soleus_r	
3.5	 38.140539	
3.5625	 38.060384	
3.625	 37.872860	
3.6875	 37.807962	
3.75	 37.753407	
3.8125	 37.773871	
3.875	 37.885119	
3.9375	 37.867891	
4	 37.873228	
4.0625	 37.790226	
4.125	 37.694812	
4.1875	 37.613810	
4.25	 37.623107	
4.3125	 37.557235	
4.375	 37.472890	
4.4375	 37.509192	
4.5	 37.464215	
4.5625	 37.565558	
4.625	 37.575395	
4.6875	 37.616112	
4.75	 37.622017	
4.8125	 37.652453	
4.875	 35.092210	
4.9375	 35.005653	
5	 34.920996	
5.0625	 34.886186	
5.125	 34.635913	
5.1875	 30.185593	
5.25	 30.204420	
5.3125	 30.276260	
5.375	 30.202364	
5.4375	 29.474218	
5.5	 29.388636	
5.5625	 28.725690	
5.625	 28.836222	
5.6875	 28.848420	
5.75	 27.521858	
5.8125	 27.458355	
5.875	 26.006680	
5.9375	 25.982843	
6	 24.696774	
6.0625	 24.618632	
6.125	 24.469853	
6.1875	 24.389842	
6.25	 24.194008	
6.3125	 23.937902	
6.375	 23.935116	
6.4375	 23.879428	
6.5	 23.969499	
6.5625	 24.025623	
6.625	 24.101261	
6.6875	 24.175955	
6.75	 24.131806	
6.8125	 24.185556	
6.875	 24.301044	
6.9375	 24.330017	
7	 24.425298	
7.0625	 24.477838	
7.125	 24.478967	
7.1875	 24.446772	
7.25	 24.492451	
7.3125	 24.516696	
7.375	 24.625524	
7.4375	 24.611787	
7.5	 24.570896	
7.5625	 24.494683	
7.625	 24.428460	
7.6875	 24.449199	
7.75	 24.413807	
7.8125	 24.511531	
7.875	 24.513749	
7.9375	 24.604099	
8	 24.678283	
8.0625	 24.666167	
8.125	 24.633285	
8.1875	 24.594467	
8.25	 24.656863	
8.3125	 24.731445	
8.375	 24.768249	
8.4375	 24.730203	
8.5	 24.742715	
8.5625	 24.782238	
8.625	 24.818839	
8.6875	 24.871081	
8.75	 24.814528	
8.8125	 24.864506	
8.875	 24.887001	
8.9375	 24.915749	
9	 24.883903	
9.0625	 24.773501	
9.125	 24.748715	
9.1875	 24.800123	
9.25	 24.712009	
9.3125	 24.730350	
9.375	 24.688631	
9.4375	 24.735839	
9.5	 24.698869	
9.5625	 24.658947	
9.625	 24.636412	
9.6875	 24.712117	
9.75	 24.676168	
9.8125	 24.670259	
9.875	 24.569315	
9.9375	 24.589881	
10	 24.568953	
10.0625	 24.617266	
10.125	 24.587928	
10.1875	 24.413848	
10.25	 24.406555	
10.3125	 27.002349	
10.375	 28.538799	
10.4375	 31.822465	
10.5	 31.724873	
10.5625	 31.758971	
10.625	 31.765244	
10.6875	 31.830183	
10.75	 31.732765	
10.8125	 31.830880	
10.875	 31.930753	
10.9375	 34.256108	
11	 34.372855	
11.0625	 34.336598	
11.125	 34.412605	
11.1875	 34.208967	
11.25	 34.241591	
11.3125	 34.124334	
11.375	 33.999375	
11.4375	 33.903593	
11.5	 33.957872	
11.5625	 33.829168	
11.625	 33.764362	
11.6875	 33.691204	
11.75	 33.832639	
11.8125	 33.794983	
11.875	 33.810770	
11.9375	 33.829738	
12	 33.692852	
12.0625	 33.626527	
12.125	 33.565373	
12.1875	 33.517108	
12.25	 33.517974	
12.3125	 33.392878	
12.375	 33.355404	
12.4375	 33.258512	
12.5	 33.249903	
12.5625	 33.264275	
12.625	 33.499992	
12.6875	 33.660931	
12.75	 33.680166	
12.8125	 33.597102	
12.875	 33.645486	
12.9375	 33.593968	
13	 33.625577	
13.0625	 33.610049	
